# xmcd CD database file
#
# Track frame offsets:
#	150
#	11089
#	21119
#	45801
#	60300
#	80296
#	98946
#	121617
#	143908
#	163828
#	183183
#	203395
#	220529
#	248600
#
# Disc length: 3572 seconds
#
# Revision: 2
# Processed by: cddbd v1.4b41PL1 Copyright (c) Steve Scherf et al.
# Submitted via: Feurio! 1.60 - http://www.feurio.com
#
DISCID=9f0df20e,a90df20e
DTITLE=PAEZ-(SABINA Y PAEZ) - ENEMIGOS INTIMOS
DYEAR=1900
DGENRE=
TTITLE0=LA VIDA MODERNA
TTITLE1=LAZARO
TTITLE2=LLUEVE SOBRE MOJADO
TTITLE3=TENGO UNA MUÑECA QUE REGALA BESOS
TTITLE4=SI VOLVIERAN LOS DRAGONES
TTITLE5=CECILIA
TTITLE6=DELIRIUM TREMENS
TTITLE7=YO ME BAJO EN ATOCHA
TTITLE8=BUENOS AIRES
TTITLE9=MAS GUAPA QUE CUALQUIERA
TTITLE10=FLORES EN SU ENTIERRO
TTITLE11=HASTA CUANDO?
TTITLE12=LA CANCION DE LOS BUENOS BORRACHOS
TTITLE13=ENEMIGOS INTIMOS
EXTD=
EXTT0=
EXTT1=
EXTT2=
EXTT3=
EXTT4=
EXTT5=
EXTT6=
EXTT7=
EXTT8=
EXTT9=
EXTT10=
EXTT11=
EXTT12=
EXTT13=
PLAYORDER=
